<?xml version="1.0" standalone="no"?>
<!DOCTYPE svg PUBLIC "-//W3C//DTD SVG 20010904//EN"
 "http://www.w3.org/TR/2001/REC-SVG-20010904/DTD/svg10.dtd">
<svg version="1.0" xmlns="http://www.w3.org/2000/svg"
 width="807.000000pt" height="403.000000pt" viewBox="0 0 807.000000 403.000000"
 preserveAspectRatio="xMidYMid meet">

<g transform="translate(0.000000,403.000000) scale(0.100000,-0.100000)"
fill="#000000" stroke="none">
<path d="M0 2015 l0 -2015 4035 0 4035 0 0 2015 0 2015 -4035 0 -4035 0 0
-2015z m241 1868 c-6 -22 -8 -16 -8 27 0 43 2 49 8 28 4 -16 4 -40 0 -55z
m-89 27 c2 -22 0 -40 -4 -40 -5 0 -9 3 -9 8 -7 48 -7 72 0 72 5 0 11 -18 13
-40z m288 32 c0 -5 -7 -17 -15 -28 -19 -25 -19 -32 3 -37 10 -3 6 -5 -10 -6
-31 -1 -36 10 -13 29 18 15 19 37 3 43 -7 3 -3 6 10 6 12 1 22 -3 22 -7z
m6962 -37 c3 -30 1 -35 -16 -35 -15 0 -17 3 -9 11 8 8 8 20 3 34 -5 13 -6 26
-3 29 11 11 21 -4 25 -39z m538 35 c0 -5 -4 -10 -10 -10 -5 0 -10 5 -10 10 0
6 5 10 10 10 6 0 10 -4 10 -10z m-179 -43 c6 -21 4 -27 -9 -27 -12 0 -17 9
-17 30 0 36 16 34 26 -3z m87 26 c-10 -2 -18 -13 -18 -23 0 -10 8 -21 18 -23
13 -4 12 -5 -4 -6 -12 0 -25 6 -28 15 -8 20 11 44 33 43 13 -1 13 -2 -1 -6z
m-7804 -15 c-4 -6 1 -17 11 -25 16 -11 16 -13 3 -13 -9 0 -19 7 -22 16 -6 15
0 34 10 34 3 0 2 -5 -2 -12z m13 -107 c-8 -22 -8 -37 1 -58 11 -26 11 -27 -3
-9 -18 23 -19 49 -5 77 16 29 20 23 7 -10z m7875 -23 c24 -56 17 -58 -10 -3
-12 25 -18 45 -14 45 4 0 15 -19 24 -42z m-7672 -4 c0 -8 -5 -14 -11 -14 -5 0
-8 4 -4 9 3 5 1 12 -5 16 -6 4 -10 -4 -10 -19 0 -13 5 -27 10 -29 6 -3 5 -4
-2 -3 -22 4 -33 33 -19 50 14 17 41 11 41 -10z m-106 -36 c8 -6 8 -8 0 -8 -20
0 -37 29 -28 47 6 15 8 14 12 -7 2 -14 9 -28 16 -32z m16 37 c0 -8 -4 -15 -8
-15 -5 0 -9 7 -9 15 0 8 4 15 9 15 4 0 8 -7 8 -15z m539 -27 c0 -24 -3 -37 -6
-30 -2 6 -11 12 -18 12 -16 0 -29 35 -20 50 3 5 15 10 26 10 16 0 19 -7 18
-42z m6951 -18 c-14 -25 -20 -26 -13 -1 3 10 -1 30 -7 42 l-12 24 21 -22 c18
-19 20 -27 11 -43z m198 -17 c-10 -2 -26 -2 -35 0 -10 3 -2 5 17 5 19 0 27 -2
18 -5z m-7630 -70 c-2 -15 3 -28 11 -31 11 -4 12 2 7 24 -6 22 -5 26 4 18 18
-18 7 -49 -18 -52 -20 -3 -22 1 -22 38 0 26 4 39 10 35 6 -4 9 -18 8 -32z
m121 23 c16 -19 10 -71 -8 -71 -8 0 -17 7 -19 15 -5 13 -3 13 11 1 15 -12 17
-11 17 12 0 28 -23 52 -41 41 -8 -4 -9 -3 -5 4 10 16 31 15 45 -2z m185 -8
c14 -23 -3 -52 -33 -56 -18 -3 -21 2 -21 31 0 18 3 37 7 41 11 11 35 3 47 -16z
m80 13 c8 -12 -4 -41 -16 -41 -6 0 -5 6 2 15 12 14 7 19 -13 16 -5 -1 -6 3 -2
9 8 12 22 13 29 1z m340 -39 c-8 -41 -23 -33 -19 10 4 44 4 43 15 32 6 -6 7
-25 4 -42z m33 3 c-1 -37 -13 -46 -24 -19 -3 9 0 20 7 24 7 4 9 13 6 19 -4 6
-3 11 2 11 6 0 10 -16 9 -35z m-917 10 c-7 -8 -10 -22 -6 -30 4 -10 -1 -15
-16 -15 -17 0 -18 2 -8 15 10 12 10 18 0 30 -11 13 -8 15 15 15 23 0 26 -2 15
-15z m266 -7 c5 -8 2 -9 -9 -5 -13 5 -17 1 -17 -15 0 -17 -3 -19 -12 -10 -8 8
-8 15 2 27 15 18 26 19 36 3z m-203 -114 c-5 -13 -2 -15 18 -9 21 7 22 6 11
-8 -9 -10 -10 -17 -2 -22 5 -3 10 -11 10 -17 0 -7 -5 -6 -15 2 -8 6 -19 9 -25
5 -6 -4 -10 7 -10 29 0 20 4 36 10 36 5 0 7 -7 3 -16z m367 -19 c0 -19 -3 -35
-7 -35 -5 0 -8 16 -8 35 0 19 3 35 8 35 4 0 7 -16 7 -35z m91 16 c8 12 11 12
19 -1 8 -13 10 -12 10 4 0 11 2 17 5 15 2 -3 2 -22 -2 -43 -6 -38 -6 -38 -19
-15 l-13 24 -1 -23 c0 -13 -4 -20 -10 -17 -5 3 -9 23 -9 43 1 20 4 28 6 18 4
-15 7 -16 14 -5z m386 -29 c7 -8 10 -18 7 -24 -4 -6 -11 -3 -17 8 -6 11 -17
25 -24 32 -7 8 -10 18 -7 24 4 6 11 3 17 -8 6 -11 17 -25 24 -32z m-901 -3 c1
-21 -2 -27 -9 -20 -7 7 -15 7 -24 0 -9 -8 -13 -8 -13 -1 0 6 4 13 10 17 5 3 7
11 4 18 -2 7 3 13 13 14 13 1 18 -6 19 -28z m273 -1 c-2 -31 -2 -31 -6 -5 -5
33 -20 35 -33 5 -8 -22 -9 -22 -9 5 -1 22 3 27 24 27 22 0 25 -4 24 -32z m79
7 c-3 -3 -9 2 -12 12 -6 14 -5 15 5 6 7 -7 10 -15 7 -18z m102 0 c0 -14 -2
-25 -4 -25 -2 0 -6 11 -8 25 -3 14 -1 25 3 25 5 0 9 -11 9 -25z m-293 -37 c-3
-8 -6 -5 -6 6 -1 11 2 17 5 13 3 -3 4 -12 1 -19z m193 12 c0 -5 -7 -10 -16
-10 -8 0 -12 5 -9 10 3 6 10 10 16 10 5 0 9 -4 9 -10z m190 -71 c0 -5 -4 -8
-9 -5 -13 8 -34 -21 -27 -39 3 -8 10 -15 17 -15 6 0 8 7 5 16 -4 10 -1 14 6
12 23 -8 14 -33 -12 -33 -18 0 -26 6 -28 23 -2 13 2 30 8 38 14 16 40 19 40 3z
m7410 1 c0 -5 -4 -10 -10 -10 -5 0 -10 5 -10 10 0 6 5 10 10 10 6 0 10 -4 10
-10z m-7773 -27 c-4 -31 -17 -41 -17 -14 0 12 -4 19 -10 16 -5 -3 -10 0 -10 7
0 8 9 14 20 14 15 0 19 -6 17 -23z m170 1 c-3 -3 -12 -4 -19 -1 -8 3 -5 6 6 6
11 1 17 -2 13 -5z m-197 -24 c0 -5 -4 -10 -10 -10 -5 0 -10 5 -10 10 0 6 5 10
10 10 6 0 10 -4 10 -10z m197 4 c-3 -3 -12 -4 -19 -1 -8 3 -5 6 6 6 11 1 17
-2 13 -5z m3814 -90 c458 -78 838 -401 983 -834 110 -329 84 -682 -71 -983
-125 -241 -321 -432 -571 -554 -125 -62 -197 -78 -221 -49 -11 13 -14 69 -16
244 -1 206 -3 232 -23 281 -12 30 -31 64 -42 76 l-21 23 48 6 c325 46 491 212
523 523 17 158 -14 290 -91 386 -30 37 -30 38 -18 98 13 67 7 173 -13 234
l-13 40 -58 -1 c-44 -1 -75 -10 -143 -43 -47 -22 -99 -50 -114 -61 -27 -20
-30 -20 -107 -2 -107 24 -388 23 -486 -1 l-68 -17 -69 41 c-82 48 -191 88
-242 89 -37 0 -38 -1 -55 -57 -20 -66 -22 -202 -4 -246 10 -25 8 -32 -14 -59
-94 -111 -128 -297 -89 -486 49 -243 195 -378 461 -429 l90 -17 -24 -35 c-13
-19 -30 -58 -38 -86 -14 -47 -19 -53 -55 -64 -22 -6 -69 -12 -104 -12 -79 -1
-130 23 -183 87 -120 144 -159 173 -236 174 -54 0 -61 -26 -17 -59 64 -48 111
-106 145 -176 39 -81 80 -125 150 -157 43 -20 65 -23 168 -23 l117 1 0 -125
c0 -102 -3 -128 -17 -143 -24 -27 -71 -22 -160 15 -386 163 -660 499 -750 920
-25 116 -24 370 1 487 55 252 168 461 346 640 130 131 283 230 453 294 61 23
219 62 282 69 84 11 280 5 366 -9z m-4194 -26 c-3 -7 -5 -2 -5 12 0 14 2 19 5
13 2 -7 2 -19 0 -25z m483 -20 c0 -26 -9 -19 -15 11 -2 12 0 19 6 16 5 -4 9
-16 9 -27z m539 5 c0 -16 -3 -22 -6 -15 -2 6 -9 12 -15 12 -6 0 -7 -7 -4 -16
4 -10 1 -14 -6 -12 -21 7 -20 26 2 33 11 3 18 11 15 16 -4 5 -1 9 4 9 6 0 11
-12 10 -27z m-989 -9 c0 -8 -2 -14 -4 -14 -2 0 -13 -3 -23 -6 -17 -6 -17 -6 1
8 12 9 16 20 11 28 -5 9 -4 11 3 6 7 -4 12 -14 12 -22z m424 -10 c4 -10 1 -14
-6 -12 -15 5 -23 28 -10 28 5 0 13 -7 16 -16z m111 -74 c3 -6 -1 -7 -9 -4 -24
9 -19 -11 6 -28 27 -18 16 -38 -20 -37 -24 2 -24 2 -4 6 28 5 28 14 1 31 -16
11 -18 16 -9 28 14 16 26 18 35 4z m-288 -32 c-3 -7 -5 -2 -5 12 0 14 2 19 5
13 2 -7 2 -19 0 -25z m-267 -108 c-13 -8 -12 -11 4 -23 23 -17 15 -47 -11 -47
-17 1 -17 1 0 11 21 12 22 29 2 29 -8 0 -15 9 -15 20 0 12 7 20 18 20 14 0 15
-2 2 -10z m726 -10 c9 0 14 -10 13 -27 -2 -24 -2 -25 -6 -5 -6 31 -21 28 -26
-5 -2 -17 -4 -11 -5 17 0 25 2 39 5 33 2 -7 11 -13 19 -13z m-466 -28 c1 -12
5 -10 15 8 9 16 14 19 15 9 0 -8 -6 -24 -14 -35 -14 -18 -15 -18 -25 9 -14 35
-14 40 -1 32 6 -3 10 -14 10 -23z m6617 -104 c-3 -8 -6 -5 -6 6 -1 11 2 17 5
13 3 -3 4 -12 1 -19z m203 2 c0 -4 -6 -13 -14 -19 -12 -10 -13 -8 -9 9 4 16 2
19 -13 14 -15 -5 -16 -4 -5 4 15 11 41 5 41 -8z m246 -16 c9 3 12 1 9 -5 -4
-5 -1 -16 5 -24 8 -9 8 -15 2 -15 -6 0 -13 6 -15 13 -4 9 -8 8 -16 -3 -8 -11
-10 -4 -9 30 0 25 3 35 5 22 3 -16 10 -22 19 -18z m294 -9 c0 -35 -20 -51 -39
-32 -25 25 -5 82 25 70 8 -3 14 -19 14 -38z m157 -22 c-2 -16 -4 -5 -4 22 0
28 2 40 4 28 2 -13 2 -35 0 -50z m-990 25 c-3 -7 -5 -2 -5 12 0 14 2 19 5 13
2 -7 2 -19 0 -25z m168 -2 c0 -19 -3 -32 -7 -29 -14 8 -8 63 6 63 1 0 1 -15 1
-34z m292 25 c17 13 17 13 4 -4 -11 -14 -11 -21 -3 -29 20 -20 13 -32 -7 -14
-18 17 -19 17 -24 -1 -3 -10 -5 0 -6 22 0 28 2 36 8 26 8 -13 12 -13 28 0z
m163 -2 c0 -8 4 -8 14 0 10 9 10 3 -3 -23 -21 -45 -31 -45 -31 -1 0 19 5 35
10 35 6 0 10 -5 10 -11z m556 -49 c8 0 14 -4 14 -9 0 -5 -8 -8 -17 -7 -13 2
-18 13 -19 42 -1 33 -1 34 3 7 3 -20 10 -33 19 -33z m-109 3 c-3 -10 -5 -4 -5
12 0 17 2 24 5 18 2 -7 2 -21 0 -30z m33 12 c0 -14 -4 -25 -9 -25 -4 0 -6 11
-3 25 2 14 6 25 8 25 2 0 4 -11 4 -25z m-900 -5 c0 -11 -2 -20 -4 -20 -2 0 -6
9 -9 20 -3 11 -1 20 4 20 5 0 9 -9 9 -20z m450 -11 c0 -6 -4 -7 -10 -4 -5 3
-10 11 -10 16 0 6 5 7 10 4 6 -3 10 -11 10 -16z m-7344 -98 c-17 -18 -17 -20
1 -30 24 -14 8 -14 -18 0 -20 10 -20 11 -3 30 9 10 22 19 27 19 6 0 2 -9 -7
-19z m7069 1 c-3 -7 -5 -19 -5 -26 0 -6 -9 -12 -20 -13 -11 -1 -20 2 -20 8 0
5 7 9 15 9 8 0 15 5 15 10 0 6 -4 10 -10 10 -5 0 -10 4 -10 8 0 4 9 8 20 8 13
0 19 -5 15 -14z m446 -5 c-10 -9 -11 -8 -5 6 3 10 9 15 12 12 3 -3 0 -11 -7
-18z m-85 -17 c1 -22 -2 -27 -11 -20 -8 6 -16 5 -25 -3 -12 -10 -12 -9 -1 5 7
9 10 21 7 27 -4 5 2 12 11 14 10 3 18 5 18 6 0 0 0 -13 1 -29z m-746 -16 c-18
-21 -24 -10 -9 18 8 14 14 18 17 10 2 -7 -2 -19 -8 -28z m19 -8 c-9 -8 -10 -7
-5 7 3 10 7 24 7 30 1 7 3 4 6 -7 3 -10 -1 -23 -8 -30z m1156 -5 c-6 -5 -25
10 -25 20 0 5 6 4 14 -3 8 -7 12 -15 11 -17z m-165 9 c0 -5 -5 -10 -11 -10 -5
0 -7 5 -4 10 3 6 8 10 11 10 2 0 4 -4 4 -10z m-1182 -105 c-12 -24 -23 -43
-26 -41 -4 5 36 86 43 86 3 0 -5 -20 -17 -45z m87 5 c7 0 16 8 18 18 3 9 5 -1
5 -23 0 -22 -2 -32 -5 -22 -2 9 -11 17 -18 17 -7 0 -16 -8 -18 -17 -3 -10 -5
0 -5 22 0 22 2 32 5 23 2 -10 11 -18 18 -18z m1071 10 c0 -12 -4 -16 -9 -11
-5 5 -6 14 -3 20 10 15 12 14 12 -9z m30 -36 c-3 -8 -11 -14 -18 -14 -9 0 -9
3 0 12 7 7 13 23 13 38 2 24 2 24 6 2 3 -13 2 -30 -1 -38z m60 36 c0 -12 -4
-16 -9 -11 -5 5 -6 14 -3 20 10 15 12 14 12 -9z m30 -36 c-3 -8 -11 -14 -18
-14 -9 0 -9 3 0 12 7 7 13 23 13 38 2 24 2 24 6 2 3 -13 2 -30 -1 -38z m82 25
c16 -1 16 -2 0 -6 -9 -2 -19 -12 -21 -21 -3 -9 -5 1 -5 23 0 22 2 32 5 23 2
-10 12 -19 21 -19z m-1099 -15 c-6 -16 -13 -24 -16 -17 -5 13 16 58 23 50 3
-2 -1 -17 -7 -33z m211 -12 c0 -39 -12 -37 -14 3 -1 14 -5 25 -11 25 -5 -1
-10 -10 -9 -20 0 -11 -3 -20 -8 -20 -13 0 -9 48 5 53 24 8 37 -6 37 -41z m270
39 c0 -6 -9 -9 -20 -8 -11 1 -20 5 -20 9 0 4 9 8 20 8 11 0 20 -4 20 -9z m165
-4 c-11 -9 -15 -19 -10 -28 6 -11 5 -12 -5 -2 -11 10 -11 15 0 28 7 8 17 15
23 15 6 0 3 -6 -8 -13z m195 -7 c0 -11 -4 -20 -10 -20 -5 0 -9 3 -9 8 3 16 -2
23 -12 17 -7 -5 -3 -15 11 -30 22 -24 20 -45 -5 -45 -8 0 -16 4 -19 9 -4 5 4
7 16 4 l23 -6 -22 22 c-25 24 -30 47 -10 54 25 11 37 6 37 -13z m-308 -15 c3
-13 1 -22 -3 -19 -9 5 -13 44 -5 44 2 0 6 -11 8 -25z m38 0 c0 -14 -4 -25 -9
-25 -4 0 -6 11 -3 25 2 14 6 25 8 25 2 0 4 -11 4 -25z m-540 -5 c0 -11 -4 -20
-10 -20 -5 0 -10 9 -10 20 0 11 5 20 10 20 6 0 10 -9 10 -20z m440 -6 c0 -7
-8 -10 -20 -7 -22 6 -19 20 5 20 8 0 15 -6 15 -13z m-7140 -115 c0 -36 -2 -40
-22 -37 -31 4 -38 47 -9 55 12 3 21 9 21 14 0 5 2 9 5 9 3 0 5 -18 5 -41z
m7415 33 c-5 -4 -10 -13 -11 -19 -1 -7 -2 -22 -2 -34 -3 -30 -22 -12 -22 20 0
32 7 41 29 41 9 0 12 -3 6 -8z m181 -3 c3 -6 -2 -18 -12 -27 -17 -16 -17 -16
-4 1 12 16 12 20 -1 28 -9 5 -10 9 -2 9 6 0 15 -5 19 -11z m-100 -27 c-17 -16
-18 -16 -5 5 7 12 15 20 18 17 3 -2 -3 -12 -13 -22z m-7437 -4 l9 -23 10 25
c6 14 11 18 11 9 1 -8 -5 -24 -13 -35 -14 -18 -15 -18 -25 9 -12 32 -13 37 -6
37 3 0 10 -10 14 -22z m88 0 c-3 -8 -6 -5 -6 6 -1 11 2 17 5 13 3 -3 4 -12 1
-19z m211 -14 c-3 -14 -5 -12 -10 9 -3 19 -2 25 4 19 6 -6 8 -18 6 -28z m61
14 l9 -23 10 25 c14 34 15 11 1 -29 -13 -36 -24 -40 -25 -8 0 12 -4 30 -8 40
-5 9 -5 17 -2 17 4 0 11 -10 15 -22z m5993 -133 c0 -20 -5 -42 -11 -48 -7 -7
-8 -1 -2 19 4 16 4 42 0 58 -6 21 -6 27 2 19 6 -6 11 -28 11 -48z m368 -1 c0
-11 -7 -29 -16 -40 -14 -18 -15 -18 -4 5 7 13 9 38 6 55 -4 22 -3 27 4 16 5
-8 10 -24 10 -36z m165 -24 c8 0 15 14 18 33 l4 32 1 -36 c2 -37 -10 -51 -35
-42 -8 3 -12 20 -11 41 l1 37 4 -32 c3 -19 10 -33 18 -33z m550 50 c3 -5 1
-10 -4 -10 -6 0 -11 5 -11 10 0 6 2 10 4 10 3 0 8 -4 11 -10z m-365 -10 c-13
-9 -13 -12 3 -21 19 -11 23 -29 6 -29 -5 0 -8 4 -4 9 3 5 -4 13 -15 16 -17 5
-19 10 -9 21 6 8 17 14 23 14 6 0 4 -5 -4 -10z m279 -6 c-6 -7 -9 -20 -7 -30
2 -9 -2 -19 -7 -21 -6 -2 -11 11 -11 30 0 24 4 33 17 33 13 0 15 -4 8 -12z
m189 -25 c-3 -20 -5 -19 -9 9 -3 20 -2 29 4 23 5 -5 7 -19 5 -32z m182 21 c0
-11 -5 -20 -11 -20 -5 0 -8 4 -4 9 3 5 1 12 -4 15 -20 13 -20 -14 0 -33 22
-20 19 -41 -6 -41 -8 0 -16 4 -19 9 -4 5 3 7 14 4 11 -3 20 0 20 6 0 6 -6 11
-14 11 -18 0 -27 35 -13 49 18 18 37 13 37 -9z m-913 4 c-3 -3 -12 -4 -19 -1
-8 3 -5 6 6 6 11 1 17 -2 13 -5z m820 -21 c1 -22 -1 -24 -9 -10 -5 10 -13 15
-19 12 -5 -4 -9 -2 -9 4 0 5 8 12 18 14 9 3 17 5 17 6 0 0 1 -11 2 -26z m-370
11 c-3 -3 -12 -4 -19 -1 -8 3 -5 6 6 6 11 1 17 -2 13 -5z m154 -27 c-10 -9
-11 -8 -5 6 3 10 9 15 12 12 3 -3 0 -11 -7 -18z m43 7 c5 -14 4 -15 -9 -4 -17
14 -19 20 -6 20 5 0 12 -7 15 -16z m-184 -83 c0 -5 -9 -7 -20 -4 -11 3 -20 7
-20 9 0 2 9 4 20 4 11 0 20 -4 20 -9z m167 -8 c4 3 8 -10 9 -29 0 -19 -3 -29
-7 -22 -6 9 -11 9 -23 -1 -19 -16 -22 -1 -4 17 9 9 9 15 0 24 -17 17 -15 33 3
18 8 -6 18 -10 22 -7z m-541 -21 c-17 -16 -18 -16 -5 5 7 12 15 20 18 17 3 -2
-3 -12 -13 -22z m460 -15 c1 -22 -2 -25 -12 -16 -10 8 -14 9 -14 0 0 -6 -5
-11 -11 -11 -8 0 -8 5 1 15 9 11 10 18 1 29 -10 11 -7 14 11 12 18 -1 23 -7
24 -29z m170 21 c-19 -10 -19 -11 -1 -24 27 -20 13 -27 -15 -7 -22 15 -22 17
-5 30 11 7 24 13 29 13 6 0 2 -6 -8 -12z m110 -21 c1 -25 1 -26 -3 -2 -6 33
-36 29 -44 -5 -6 -22 -7 -22 -8 8 -1 31 1 33 27 30 22 -2 27 -8 28 -31z m-395
-20 c-10 -9 -11 -8 -5 6 3 10 9 15 12 12 3 -3 0 -11 -7 -18z m-354 -84 c-3
-15 -1 -37 4 -50 5 -13 5 -23 0 -23 -5 0 -11 11 -13 25 -5 26 1 75 9 75 3 0 3
-12 0 -27z m-249 -12 c2 -13 0 -27 -5 -32 -5 -5 -9 3 -8 18 0 42 -23 39 -28
-4 l-4 -38 -1 43 c-2 40 0 43 21 40 14 -2 23 -11 25 -27z m59 2 l10 -28 8 28
c4 15 11 27 16 27 4 0 3 -16 -4 -35 -7 -19 -16 -34 -22 -34 -5 0 -15 15 -22
34 -14 41 -2 48 14 8z m108 17 c-3 -5 -12 -7 -20 -3 -21 7 -19 13 6 13 11 0
18 -4 14 -10z m176 -34 c5 3 9 14 9 25 0 10 4 19 10 19 6 0 6 -10 -1 -27 -5
-16 -12 -35 -15 -43 -4 -11 -9 -9 -19 10 -8 14 -14 34 -14 45 0 15 3 14 11 -8
5 -15 14 -25 19 -21z m76 -8 c-2 -13 -4 -5 -4 17 -1 22 1 32 4 23 2 -10 2 -28
0 -40z m303 32 c11 -20 -1 -60 -18 -60 -24 0 -43 55 -25 73 12 13 32 7 43 -13z
m180 16 c0 -15 -24 -66 -31 -66 -5 0 -3 13 6 29 14 27 13 30 -3 34 -13 4 -11
5 6 6 12 0 22 -1 22 -3z m84 -18 c-7 -26 -23 -56 -24 -46 0 4 4 18 10 32 7 20
6 26 -8 29 -12 3 -10 5 6 6 20 1 22 -2 16 -21z m-1747 -10 c-3 -8 -6 -5 -6 6
-1 11 2 17 5 13 3 -3 4 -12 1 -19z m1558 12 c3 -5 -1 -10 -9 -10 -9 0 -16 5
-16 10 0 6 4 10 9 10 6 0 13 -4 16 -10z m-1528 -37 c-3 -10 -5 -4 -5 12 0 17
2 24 5 18 2 -7 2 -21 0 -30z m263 22 c0 -8 -2 -15 -4 -15 -2 0 -6 7 -10 15 -3
8 -1 15 4 15 6 0 10 -7 10 -15z m1003 8 c-7 -2 -21 -2 -30 0 -10 3 -4 5 12 5
17 0 24 -2 18 -5z m-7330 -70 c-7 -2 -21 -2 -30 0 -10 3 -4 5 12 5 17 0 24 -2
18 -5z m164 -53 c-9 -23 -9 -35 1 -50 17 -28 15 -38 -3 -14 -17 23 -19 48 -5
75 16 29 20 23 7 -11z m286 18 c3 -8 -5 -14 -20 -14 -19 -2 -22 1 -12 12 14
17 25 18 32 2z m367 -38 c0 -9 -6 -24 -12 -33 -11 -15 -13 -10 -13 33 0 43 2
48 12 33 7 -9 13 -24 13 -33z m-828 0 c2 -25 0 -39 -7 -37 -5 2 -10 15 -10 28
0 13 -4 30 -8 37 -5 7 -3 12 6 12 10 0 16 -13 19 -40z m640 12 c-16 -5 -15
-39 1 -45 7 -4 6 -6 -4 -6 -11 -1 -18 9 -21 29 -5 35 -2 41 20 32 10 -4 12 -7
4 -10z m-714 -24 c3 -22 -1 -28 -17 -28 -10 0 -22 -6 -24 -12 -3 -7 -6 6 -6
28 -1 37 2 41 22 40 16 -1 23 -8 25 -28z m6963 -90 c9 -19 9 -21 -2 -11 -10
10 -16 10 -27 0 -13 -10 -14 -9 -3 11 6 12 14 22 16 22 2 0 10 -10 16 -22z
m-471 -27 c0 -22 5 -42 10 -44 6 -3 5 -4 -2 -3 -14 3 -30 86 -16 86 4 0 8 -18
8 -39z m816 -18 c-14 -26 -25 -45 -26 -41 0 12 43 98 48 94 2 -2 -8 -26 -22
-53z m-443 5 c4 -27 2 -38 -7 -38 -8 0 -11 10 -8 30 3 21 0 30 -9 30 -11 0
-11 2 1 10 18 11 16 13 23 -32z m532 -19 c6 0 13 15 17 33 6 31 6 31 5 -7 -2
-33 -6 -40 -22 -40 -16 0 -20 7 -22 40 -1 38 -1 38 5 7 4 -18 12 -33 17 -33z
m109 52 c4 -5 -3 -7 -14 -4 -23 6 -26 13 -6 13 8 0 17 -4 20 -9z m71 -52 c6 0
13 15 17 33 6 31 6 31 5 -7 -2 -33 -6 -40 -22 -40 -16 0 -20 7 -22 40 -1 38
-1 38 5 7 4 -18 12 -33 17 -33z m101 44 c3 10 10 17 14 17 5 0 1 -17 -8 -39
l-17 -38 -12 36 c-16 46 -16 50 2 27 13 -17 15 -17 21 -3z m86 6 c-16 -6 -22
-15 -20 -31 4 -30 28 -36 28 -7 0 17 3 20 11 12 18 -18 2 -45 -23 -41 -41 6
-37 79 4 77 l23 0 -23 -10z m108 -8 c0 -15 -5 -18 -22 -13 -19 5 -20 7 -5 10
9 2 17 8 17 13 0 5 2 9 5 9 3 0 5 -9 5 -19z m85 -21 c0 -29 -4 -40 -15 -40
-11 0 -15 11 -15 40 0 29 4 40 15 40 11 0 15 -11 15 -40z m-734 11 c-13 -8
-13 -12 0 -27 13 -16 12 -16 -9 -5 -19 10 -21 15 -11 27 6 8 17 14 23 14 6 0
5 -4 -3 -9z m284 -11 c-3 -5 -14 -10 -23 -9 -14 0 -13 2 3 9 27 11 27 11 20 0z
m167 -160 c-6 -16 -8 -8 -9 32 0 47 1 49 9 21 4 -17 4 -41 0 -53z m-7601 28
c-3 -38 -5 -40 -13 -19 -4 13 -6 32 -3 42 11 34 21 20 16 -23z m7783 20 c-1
-13 -3 -32 -4 -43 -1 -15 -4 -13 -11 9 -5 20 -4 34 3 43 14 17 15 17 12 -9z
m-434 -9 c0 -4 -9 -7 -20 -6 -11 1 -20 7 -20 13 0 7 8 10 20 7 11 -3 20 -9 20
-14z m-483 -21 c-3 -8 -6 -5 -6 6 -1 11 2 17 5 13 3 -3 4 -12 1 -19z m295 -20
c-6 -6 -7 0 -4 19 5 21 7 23 10 9 2 -10 0 -22 -6 -28z m258 32 c0 -5 -4 -10
-10 -10 -5 0 -10 5 -10 10 0 6 5 10 10 10 6 0 10 -4 10 -10z m455 0 c-4 -6 -1
-18 7 -27 12 -15 11 -15 -9 -2 -26 16 -29 25 -10 32 18 8 19 8 12 -3z m-555
-20 c0 -5 -4 -10 -10 -10 -5 0 -10 5 -10 10 0 6 5 10 10 10 6 0 10 -4 10 -10z
m30 6 c0 -3 -4 -8 -10 -11 -5 -3 -10 -1 -10 4 0 6 5 11 10 11 6 0 10 -2 10 -4z
m-25 -126 c0 -27 -3 -50 -7 -50 -5 0 -8 23 -8 50 0 28 3 50 8 50 4 0 7 -22 7
-50z m-7395 33 c-1 -12 -39 -79 -40 -70 0 4 7 21 15 37 13 26 13 29 -3 33 -13
4 -11 5 6 6 12 0 22 -2 22 -6z m364 -15 c14 -23 -3 -53 -30 -53 -20 0 -31 33
-20 61 7 19 35 14 50 -8z m6515 -48 c1 -13 0 -13 -9 0 -8 12 -13 13 -29 3 -16
-10 -18 -9 -14 7 3 11 11 16 19 13 9 -3 14 1 14 12 0 9 -4 13 -10 10 -12 -7
-14 8 -3 19 8 8 32 -39 32 -64z m79 63 c-13 -3 -18 -15 -18 -39 0 -21 -4 -33
-10 -29 -5 3 -10 22 -10 41 0 31 3 34 28 33 16 -1 20 -3 10 -6z m552 -8 c10
-12 10 -21 1 -41 -14 -31 -45 -29 -49 4 -7 48 21 69 48 37z m169 -11 c7 16 14
26 17 23 3 -2 -2 -22 -12 -43 l-16 -39 -14 30 c-7 17 -13 37 -13 45 0 8 7 2
14 -15 l13 -30 11 29z m-4514 5 c10 -15 -1 -23 -20 -15 -9 3 -13 10 -10 16 8
13 22 13 30 -1z m3975 7 c0 -11 -19 -15 -25 -6 -3 5 1 10 9 10 9 0 16 -2 16
-4z m455 -17 c11 -16 1 -19 -13 -3 -7 8 -8 14 -3 14 5 0 13 -5 16 -11z m176 2
c-8 -5 -12 -18 -8 -30 3 -12 0 -21 -6 -21 -7 0 -12 14 -12 30 0 23 4 30 20 30
15 0 17 -2 6 -9z m-726 -19 c-3 -3 -11 0 -18 7 -9 10 -8 11 6 5 10 -3 15 -9
12 -12z m-3822 -27 c7 -16 -8 -29 -23 -20 -15 9 -12 35 4 35 8 0 16 -7 19 -15z
m-3068 -99 c0 -30 -3 -52 -7 -49 -14 8 -8 103 6 103 1 0 1 -24 1 -54z m3115
39 c10 -13 11 -18 1 -28 -10 -9 -15 -8 -26 7 -23 31 1 50 25 21z m3322 -40 c0
-20 -2 -39 -5 -42 -3 -3 -6 13 -5 35 0 22 -3 46 -7 54 -6 10 -5 10 5 2 6 -7
12 -29 12 -49z m1179 22 c4 -15 3 -29 -2 -33 -5 -3 -7 -9 -5 -13 3 -4 0 -13
-5 -21 -8 -11 -9 -5 -6 20 2 19 0 46 -4 58 -7 17 -6 23 3 20 6 -2 15 -16 19
-31z m-7779 14 c-7 -4 -12 -12 -11 -17 4 -24 -2 -54 -12 -54 -6 0 -9 9 -6 20
3 11 1 20 -4 20 -5 0 -4 9 3 20 7 11 20 20 28 20 12 0 12 -2 2 -9z m6699 0
c-7 -5 -10 -14 -7 -20 4 -6 2 -11 -3 -11 -6 0 -11 -10 -12 -22 -1 -22 -1 -22
-8 2 -10 31 4 60 27 60 13 0 14 -2 3 -9z m530 -45 c5 3 9 -2 9 -10 0 -9 -5
-16 -10 -16 -11 0 -31 43 -29 63 0 7 5 0 11 -16 5 -15 14 -25 19 -21z m23 29
c-4 -8 -8 -15 -10 -15 -2 0 -4 7 -4 15 0 8 4 15 10 15 5 0 7 -7 4 -15z m146 0
c0 -21 18 -19 23 3 3 9 5 0 6 -20 0 -21 -3 -38 -9 -38 -5 0 -10 7 -10 15 0 21
-18 19 -23 -2 -3 -10 -5 -1 -6 20 0 20 4 37 9 37 6 0 10 -7 10 -15z m114 6 c4
-5 -3 -7 -14 -4 -16 4 -20 0 -20 -19 0 -13 6 -30 13 -38 10 -12 9 -12 -5 -1
-18 13 -24 51 -11 64 9 10 31 9 37 -2z m354 2 c-21 -5 -24 -23 -5 -23 8 0 7
-4 -3 -10 -13 -9 -12 -12 4 -25 19 -15 19 -15 -2 -15 -19 0 -22 6 -22 40 0 35
3 40 23 39 16 -1 18 -2 5 -6z m-7794 -27 c-15 -11 -15 -14 2 -31 12 -12 14
-17 5 -14 -25 9 -36 36 -22 53 7 9 18 13 23 10 5 -3 2 -11 -8 -18z m3264 -28
c16 -16 15 -38 -2 -38 -18 0 -39 27 -31 40 8 13 18 13 33 -2z m4355 5 c-7 -2
-19 -2 -25 0 -7 3 -2 5 12 5 14 0 19 -2 13 -5z m-4257 -64 c3 -6 2 -15 -3 -20
-13 -13 -43 -1 -43 17 0 16 36 19 46 3z m199 -9 c0 -8 -10 -16 -22 -18 -22 -3
-32 16 -16 32 12 11 38 2 38 -14z m-96 -3 c14 -17 4 -27 -26 -27 -35 0 -28 35
8 39 4 1 12 -5 18 -12z m4138 -64 c-2 -16 -4 -3 -4 27 0 30 2 43 4 28 2 -16 2
-40 0 -55z m-7694 55 c-14 -19 -10 -51 6 -56 10 -3 12 1 8 18 -4 16 -3 20 5
12 15 -15 1 -44 -19 -40 -22 4 -29 44 -13 64 15 17 26 19 13 2z m6715 -1 c7
-8 6 -18 -4 -31 -11 -16 -11 -21 -1 -28 8 -5 4 -8 -10 -8 -26 0 -30 12 -8 30
18 15 19 37 3 43 -8 4 -9 6 -2 6 6 1 16 -5 22 -12z m280 -4 c12 -23 -3 -63
-22 -63 -23 0 -39 36 -26 60 13 25 36 26 48 3z m145 4 c3 -8 1 -20 -4 -28 -6
-10 -9 -7 -9 14 0 29 5 35 13 14z m387 -12 c-10 -12 -10 -19 -2 -27 7 -7 12
-16 12 -20 0 -12 -35 25 -43 45 -4 11 -2 14 7 11 8 -3 17 0 21 6 4 6 9 9 12 6
3 -3 0 -13 -7 -21z m280 20 c0 -14 -31 -77 -36 -73 -2 3 1 18 8 32 10 23 9 29
-3 37 -11 7 -9 9 9 9 12 0 22 -2 22 -5z m167 -2 c-11 -3 -16 -11 -13 -19 3 -8
1 -24 -4 -36 -7 -19 -9 -16 -9 20 -1 37 1 42 22 41 18 -1 18 -2 4 -6z m-1716
-45 c8 -16 8 -19 -1 -13 -7 4 -16 2 -20 -5 -4 -6 -7 1 -6 18 1 33 10 33 27 0z
m189 24 c0 -4 -6 -14 -12 -20 -10 -10 -10 -15 2 -22 12 -8 10 -10 -7 -10 -24
0 -31 14 -12 25 6 4 8 13 5 21 -3 8 1 14 9 14 8 0 15 -4 15 -8z m1176 -25 c1
-19 -2 -25 -9 -18 -7 7 -15 7 -26 -2 -14 -10 -14 -10 -3 4 7 9 10 23 7 31 -3
8 1 14 12 14 13 0 18 -9 19 -29z m-190 -23 c-3 -8 -11 -14 -18 -13 -10 0 -10
2 0 6 6 2 13 17 13 31 1 18 3 21 6 9 3 -10 2 -25 -1 -33z m450 0 c-3 -9 -6
-18 -6 -20 0 -2 -4 -4 -9 -4 -5 0 -7 9 -4 20 3 11 10 20 15 20 6 0 7 -7 4 -16z
m-7516 -93 c0 -22 5 -42 10 -44 6 -3 5 -4 -2 -3 -7 1 -14 18 -16 37 -2 18 -9
37 -15 41 -8 5 -6 8 6 8 13 0 17 -8 17 -39z m7439 -3 c-1 -35 -2 -38 -8 -18
-7 23 -4 60 5 60 2 0 4 -19 3 -42z m172 -41 c-7 -7 -15 -6 -26 3 -17 14 -20
36 -4 45 6 4 10 1 8 -6 -3 -26 1 -39 12 -39 6 0 10 10 9 23 -4 41 3 63 7 23 3
-21 0 -43 -6 -49z m-7784 64 c16 13 17 12 5 -3 -11 -13 -11 -21 -1 -40 11 -21
11 -22 -5 -9 -15 13 -19 13 -27 0 -6 -10 -9 -2 -9 26 0 28 3 36 9 26 8 -13 12
-13 28 0z m6948 -1 c-3 -6 4 -14 17 -19 l23 -10 -22 0 c-14 -1 -23 -7 -23 -17
0 -11 5 -14 18 -9 13 5 14 3 5 -6 -18 -18 -33 -1 -29 34 6 39 5 37 12 37 3 0
2 -5 -1 -10z m543 -1 c-2 -6 3 -14 11 -17 10 -3 12 0 8 12 -4 9 -3 15 2 12 4
-3 8 -20 8 -38 0 -18 -2 -25 -4 -15 -3 9 -11 17 -19 17 -17 0 -18 -12 -2 -28
9 -9 9 -12 0 -12 -7 0 -13 3 -13 8 -5 28 -6 58 -2 65 6 11 13 8 11 -4z m212 7
c0 -15 -24 -66 -31 -66 -5 0 -3 13 6 29 14 27 13 30 -3 34 -13 4 -11 5 6 6 12
0 22 -1 22 -3z m-1205 -15 c3 -5 1 -12 -5 -16 -5 -3 -10 1 -10 9 0 18 6 21 15
7z m832 -28 c-3 -10 -5 -4 -5 12 0 17 2 24 5 18 2 -7 2 -21 0 -30z m-7428 17
c-1 -3 3 -15 10 -27 10 -20 9 -23 -6 -23 -13 0 -18 8 -18 30 0 17 4 29 8 27 5
-1 7 -5 6 -7z m6975 -11 c-16 -17 -16 -22 -4 -29 13 -8 12 -10 -2 -10 -24 0
-31 15 -13 30 8 7 12 16 9 21 -3 5 3 9 12 9 16 0 16 -2 -2 -21z m700 6 c-4 -8
0 -23 7 -33 12 -16 12 -16 -5 0 -16 14 -17 48 -2 48 3 0 3 -7 0 -15z m-159
-24 c3 -5 1 -12 -5 -16 -5 -3 -10 1 -10 9 0 18 6 21 15 7z m-278 -23 c-3 -8
-6 -5 -6 6 -1 11 2 17 5 13 3 -3 4 -12 1 -19z m-7309 -15 c-10 -2 -28 -2 -40
0 -13 2 -5 4 17 4 22 1 32 -1 23 -4z m445 -40 c-7 -2 -13 -21 -14 -41 -1 -36
-1 -37 -9 -9 -11 35 -3 57 19 56 10 0 11 -2 4 -6z m7030 -29 c-5 -29 -3 -36 8
-32 8 3 14 17 14 31 -1 30 10 36 19 11 9 -22 -11 -54 -34 -54 -16 0 -20 7 -20
33 0 29 6 47 16 47 2 0 0 -16 -3 -36z m217 16 c14 -26 -4 -63 -28 -58 -21 4
-28 44 -12 64 17 19 27 18 40 -6z m265 11 c7 -12 -12 -24 -25 -16 -11 7 -4 25
10 25 5 0 11 -4 15 -9z m-97 -9 c15 12 16 11 3 -5 -12 -15 -11 -20 4 -37 10
-11 13 -20 8 -20 -6 0 -14 8 -18 18 -7 16 -8 15 -15 -3 -7 -15 -9 -10 -9 20 1
22 3 34 6 27 4 -10 8 -10 21 0z m-644 -17 c-19 -15 -19 -15 0 -30 18 -13 18
-15 3 -15 -20 0 -32 23 -23 45 3 8 13 15 23 15 15 0 15 -2 -3 -15z m551 5 c3
-5 1 -10 -4 -10 -6 0 -11 5 -11 10 0 6 2 10 4 10 3 0 8 -4 11 -10z m-196 -43
c1 -5 -3 -5 -9 -2 -5 3 -10 16 -9 28 0 21 1 21 9 2 5 -11 9 -24 9 -28z m31 6
c0 -13 -3 -13 -15 -3 -8 7 -15 19 -15 27 0 13 3 13 15 3 8 -7 15 -19 15 -27z
m170 0 c0 -5 -5 -15 -10 -23 -8 -12 -10 -11 -10 8 0 12 5 22 10 22 6 0 10 -3
10 -7z m-2093 -105 c-3 -7 -5 -2 -5 12 0 14 2 19 5 13 2 -7 2 -19 0 -25z m440
-20 c-2 -13 -4 -5 -4 17 -1 22 1 32 4 23 2 -10 2 -28 0 -40z m205 12 c2 -25
-1 -40 -8 -40 -6 0 -9 12 -6 30 3 19 0 30 -7 30 -7 0 -9 5 -6 10 13 20 23 9
27 -30z m86 27 c5 8 8 -1 8 -22 0 -21 -3 -30 -8 -22 -6 9 -10 9 -16 0 -5 -8
-8 1 -8 22 0 21 3 30 8 22 6 -9 10 -9 16 0z m1154 -12 c-2 -14 2 -33 9 -43 13
-15 12 -16 -3 -3 -18 13 -24 51 -11 64 10 11 11 9 5 -18z m381 0 c-7 -21 -13
-19 -13 6 0 11 4 18 10 14 5 -3 7 -12 3 -20z m-2336 -7 c-3 -8 -6 -5 -6 6 -1
11 2 17 5 13 3 -3 4 -12 1 -19z m1085 0 c-5 -20 -6 -21 -12 -3 -4 12 -9 15
-13 8 -4 -6 -4 -18 -1 -27 3 -9 1 -16 -5 -16 -15 0 -14 47 2 53 26 11 35 7 29
-15z m1178 -4 c0 -8 -7 -14 -15 -14 -17 0 -20 -16 -5 -23 6 -3 5 -4 -2 -3 -22
4 -33 33 -19 50 14 17 41 11 41 -10z m-1013 -21 c-3 -10 -5 -4 -5 12 0 17 2
24 5 18 2 -7 2 -21 0 -30z m633 -23 c-12 -22 -22 -27 -14 -7 3 8 0 27 -6 43
l-11 29 21 -22 c17 -18 19 -27 10 -43z m167 39 c-1 -12 4 -24 12 -27 10 -3 13
2 9 22 -3 14 -1 26 3 26 13 0 11 -48 -2 -56 -16 -9 -43 21 -36 40 9 23 17 20
14 -5z m-1427 1 c8 -5 11 -10 5 -10 -5 0 -17 5 -25 10 -8 5 -10 10 -5 10 6 0
17 -5 25 -10z m801 -23 c-10 -9 -11 -8 -5 6 3 10 9 15 12 12 3 -3 0 -11 -7
-18z m-536 3 c3 -5 1 -10 -4 -10 -6 0 -11 5 -11 10 0 6 2 10 4 10 3 0 8 -4 11
-10z m-625 -4 c0 -3 -4 -8 -10 -11 -5 -3 -10 -1 -10 4 0 6 5 11 10 11 6 0 10
-2 10 -4z m828 -18 c-6 -16 -48 -23 -48 -9 0 6 7 8 15 5 8 -4 15 -1 15 5 0 6
5 11 11 11 6 0 9 -6 7 -12z m-6721 -110 c-2 -13 -4 -3 -4 22 0 25 2 35 4 23 2
-13 2 -33 0 -45z m7433 52 c0 -5 -5 -10 -12 -10 -6 0 -3 -9 7 -20 17 -19 17
-22 3 -36 -11 -11 -18 -12 -22 -5 -4 6 0 11 8 11 22 0 20 13 -5 28 -16 11 -18
16 -9 28 14 16 30 19 30 4z m186 -27 c2 -34 -19 -63 -31 -43 -3 5 1 10 9 10 9
0 16 5 16 10 0 6 -5 10 -11 10 -8 0 -8 4 0 14 10 11 8 17 -6 26 -17 10 -17 11
2 8 14 -2 20 -12 21 -35z m346 -2 c2 -22 0 -37 -3 -35 -9 5 -17 74 -8 74 4 0
9 -18 11 -39z m-650 -5 c2 -19 0 -32 -4 -30 -8 5 -12 64 -4 64 2 0 6 -15 8
-34z m31 -27 c-5 -5 -7 7 -4 29 5 34 6 35 9 8 2 -16 0 -32 -5 -37z m154 29
c-3 -7 -5 -2 -5 12 0 14 2 19 5 13 2 -7 2 -19 0 -25z m201 19 c5 8 8 -1 9 -22
1 -19 -3 -35 -8 -35 -4 0 -6 7 -3 15 4 10 0 15 -11 15 -11 0 -15 -5 -11 -16 3
-8 2 -12 -3 -9 -8 4 -8 25 -2 65 1 3 6 -2 11 -10 8 -12 12 -12 18 -3z m-7621
-32 c1 -19 -3 -38 -8 -41 -10 -6 -12 59 -2 69 9 10 9 10 10 -28z m33 5 c0 -10
-3 -21 -7 -23 -5 -3 -8 8 -8 23 0 15 3 26 8 23 4 -2 7 -13 7 -23z m7690 22 c0
-4 -6 -14 -12 -20 -10 -10 -10 -15 2 -22 12 -8 10 -10 -7 -10 -24 0 -31 14
-12 25 6 4 8 13 5 21 -3 8 1 14 9 14 8 0 15 -4 15 -8z m-295 -42 c3 -5 1 -10
-4 -10 -6 0 -11 5 -11 10 0 6 2 10 4 10 3 0 8 -4 11 -10z m-7399 -81 c3 -6 -2
-18 -11 -27 -17 -16 -17 -16 -11 2 4 12 1 23 -6 28 -10 6 -9 8 4 8 9 0 20 -5
24 -11z m70 -11 l8 -23 7 25 c6 20 7 16 8 -20 l1 -45 -19 24 c-18 23 -19 23
-24 5 -2 -10 -5 -2 -6 19 -1 41 13 50 25 15z m171 -40 c-2 -13 -4 -3 -4 22 0
25 2 35 4 23 2 -13 2 -33 0 -45z m7603 27 c0 -19 5 -35 11 -35 7 0 9 10 6 25
-3 16 0 24 7 22 6 -2 11 -12 11 -22 0 -20 -30 -43 -42 -32 -10 11 -12 77 -1
77 4 0 8 -16 8 -35z m-7410 0 c8 0 19 5 23 10 5 6 6 2 3 -8 -3 -10 -6 -26 -6
-35 0 -13 -3 -12 -15 4 -13 18 -14 18 -15 1 0 -10 -4 -15 -10 -12 -5 3 -10 18
-10 33 0 15 4 23 8 17 4 -5 14 -10 22 -10z m4977 -162 c-2 -16 -4 -5 -4 22 0
28 2 40 4 28 2 -13 2 -35 0 -50z m273 27 c0 -22 -2 -40 -4 -40 -2 0 -6 18 -8
40 -2 22 0 40 4 40 5 0 8 -18 8 -40z m454 -2 c8 -6 8 -8 -1 -8 -6 0 -14 -8
-16 -17 -3 -10 -5 2 -5 27 0 25 3 36 5 25 3 -11 10 -23 17 -27z m106 30 c0 -4
-9 -8 -21 -8 -11 0 -18 4 -15 8 3 5 12 9 21 9 8 0 15 -4 15 -9z m452 -23 c9
-35 3 -45 -25 -44 -15 1 -17 3 -6 6 19 5 21 52 4 66 -6 5 -4 7 4 5 8 -3 18
-17 23 -33z m982 27 c-18 -11 -21 -54 -5 -60 10 -3 12 1 8 17 -3 11 -1 19 4
15 5 -3 9 -14 9 -25 0 -23 -38 -26 -47 -3 -7 20 13 64 29 64 9 0 10 -2 2 -8z
m-2794 -12 c0 -5 -7 -10 -15 -10 -8 0 -15 5 -15 10 0 6 7 10 15 10 8 0 15 -4
15 -10z m425 -24 c0 -19 -3 -32 -7 -29 -14 8 -8 63 6 63 1 0 1 -15 1 -34z
m191 7 c-10 -10 -19 5 -10 18 6 11 8 11 12 0 2 -7 1 -15 -2 -18z m806 9 c3 -9
1 -26 -3 -37 -6 -15 -8 -11 -8 18 -1 40 4 48 11 19z m30 -44 c-4 -4 -8 10 -9
30 -1 37 -1 37 8 7 4 -16 5 -33 1 -37z m447 39 c0 -9 -2 -8 -6 1 -2 6 -10 9
-15 6 -7 -4 -8 -2 -4 5 9 13 26 5 25 -12z m371 16 c0 -3 -8 -15 -17 -25 -15
-17 -15 -20 -3 -28 12 -8 10 -10 -8 -10 -13 0 -22 3 -20 8 24 48 32 62 40 62
4 0 8 -3 8 -7z m74 -25 c8 -6 8 -8 -1 -8 -6 0 -14 -8 -16 -17 -3 -10 -5 0 -5
22 0 22 2 33 5 25 3 -8 11 -18 17 -22z m530 17 c-4 -9 0 -15 7 -15 12 0 12 -2
0 -9 -7 -5 -10 -14 -7 -20 4 -6 2 -11 -3 -11 -6 0 -11 16 -11 35 0 19 4 35 10
35 5 0 7 -7 4 -15z m-3506 -31 c4 -32 -4 -31 -10 1 -1 11 -7 24 -13 28 -6 5
-4 7 5 4 8 -2 17 -17 18 -33z m3262 32 c0 -2 -8 -10 -17 -17 -16 -13 -17 -12
-4 4 13 16 21 21 21 13z m-3711 -33 c0 -25 -1 -26 -9 -8 -12 27 -12 35 0 35 6
0 10 -12 9 -27z m1533 -15 c-8 -8 -9 -4 -5 13 4 13 8 18 11 10 2 -7 -1 -18 -6
-23z m1175 26 c-3 -3 -12 -4 -19 -1 -8 3 -5 6 6 6 11 1 17 -2 13 -5z m-2740
-19 c0 -8 -4 -12 -9 -9 -5 3 -6 10 -3 15 9 13 12 11 12 -6z m453 -1 c0 -8 -5
-12 -10 -9 -6 4 -8 11 -5 16 9 14 15 11 15 -7z m824 0 c3 -8 2 -12 -4 -9 -6 3
-10 10 -10 16 0 14 7 11 14 -7z m1746 6 c0 -5 -2 -10 -4 -10 -3 0 -8 5 -11 10
-3 6 -1 10 4 10 6 0 11 -4 11 -10z m-380 -19 c0 -6 -4 -13 -10 -16 -5 -3 -10
1 -10 9 0 9 5 16 10 16 6 0 10 -4 10 -9z m-6356 -76 c-4 -8 1 -17 9 -21 9 -3
18 -13 21 -21 6 -13 4 -14 -10 -3 -13 12 -17 11 -25 -1 -6 -10 -9 -6 -9 17 0
17 3 34 7 37 10 11 13 8 7 -8z m400 -7 c14 -23 -3 -53 -30 -53 -15 0 -20 9
-22 38 -3 35 -1 38 19 35 12 -2 27 -11 33 -20z m-186 -11 c2 -9 -2 -17 -8 -17
-6 0 -9 4 -5 9 3 5 1 12 -4 15 -20 13 -21 -14 -1 -34 27 -27 25 -40 -5 -40
-14 0 -25 4 -25 9 0 5 10 7 23 4 l22 -6 -22 22 c-26 25 -28 32 -11 49 15 15
32 10 36 -11z m7489 -34 c6 -2 13 4 16 14 4 16 5 16 6 1 0 -9 -4 -20 -9 -23
-17 -11 -40 15 -39 44 1 26 1 26 8 -3 3 -16 11 -31 18 -33z m-355 17 c-2 -16
-7 -30 -11 -30 -3 0 -6 14 -6 30 0 17 5 30 11 30 6 0 9 -13 6 -30z m438 15 c0
-8 5 -15 10 -15 6 0 10 8 10 17 0 9 2 14 5 11 8 -8 -5 -58 -15 -58 -4 0 -13
14 -19 30 -6 18 -6 30 0 30 5 0 9 -7 9 -15z m-265 -121 c-7 -15 -11 -33 -8
-42 4 -10 2 -13 -5 -8 -17 10 -15 42 4 60 22 23 25 20 9 -10z m-3538 -16 c-3
-7 -5 -2 -5 12 0 14 2 19 5 13 2 -7 2 -19 0 -25z m653 12 c0 -11 -2 -20 -4
-20 -2 0 -6 9 -9 20 -3 11 -1 20 4 20 5 0 9 -9 9 -20z m247 -32 c-2 -13 -4 -5
-4 17 -1 22 1 32 4 23 2 -10 2 -28 0 -40z m90 0 c-2 -13 -4 -5 -4 17 -1 22 1
32 4 23 2 -10 2 -28 0 -40z m43 17 c0 -13 -3 -26 -7 -28 -5 -3 -8 10 -8 28 0
18 3 31 8 28 4 -2 7 -15 7 -28z m156 16 c12 10 13 9 8 -5 -3 -9 0 -24 7 -34
12 -15 11 -15 -8 1 -21 18 -21 18 -26 0 -3 -10 -5 0 -5 22 0 22 2 32 5 22 4
-14 8 -16 19 -6z m350 -16 c0 -18 -3 -32 -8 -29 -13 8 -8 64 6 64 1 0 1 -16 2
-35z m94 24 c0 -8 4 -8 13 -1 9 8 12 2 13 -25 0 -26 -2 -30 -9 -18 -8 15 -10
15 -23 -2 -14 -17 -14 -16 -4 5 9 18 8 27 -1 38 -8 10 -8 14 0 14 6 0 11 -5
11 -11z m447 -41 c-2 -13 -4 -5 -4 17 -1 22 1 32 4 23 2 -10 2 -28 0 -40z m37
-10 c-3 -4 -10 -8 -16 -8 -7 0 -6 6 2 15 7 9 8 15 2 15 -6 0 -8 10 -4 22 5 22
6 21 13 -6 5 -16 6 -33 3 -38z m73 30 c-3 -7 -5 -2 -5 12 0 14 2 19 5 13 2 -7
2 -19 0 -25z m463 6 c13 -33 13 -47 0 -39 -5 3 -10 16 -10 27 0 20 -13 17 -16
-3 -1 -5 -2 -13 -3 -19 0 -5 -5 -10 -10 -10 -5 0 -4 15 2 35 12 42 24 44 37 9z
m77 -4 c9 0 13 6 9 15 -3 8 -1 15 4 15 5 0 8 -15 7 -34 -2 -31 -3 -33 -19 -19
-14 13 -17 13 -21 -4 -3 -10 -5 0 -5 22 0 22 2 32 5 23 2 -10 11 -18 20 -18z
m281 0 c-5 -17 -15 -33 -21 -37 -7 -4 -8 0 -3 13 5 10 11 27 13 37 3 9 9 17
14 17 4 0 3 -14 -3 -30z m75 15 c-3 -9 -8 -14 -10 -11 -3 3 -2 9 2 15 9 16 15
13 8 -4z m74 -7 c-3 -8 -6 -5 -6 6 -1 11 2 17 5 13 3 -3 4 -12 1 -19z m40 0
c-3 -8 -6 -5 -6 6 -1 11 2 17 5 13 3 -3 4 -12 1 -19z m79 13 c7 5 5 -5 -5 -25
-21 -46 -31 -45 -31 1 0 28 3 34 12 25 8 -8 15 -8 24 -1z m-3248 -42 c-3 -20
-5 -19 -9 9 -3 20 -2 29 4 23 5 -5 7 -19 5 -32z m2345 27 c13 -10 14 -15 5
-23 -22 -17 -44 -25 -24 -9 20 16 20 16 0 31 -10 8 -14 14 -9 14 6 0 18 -6 28
-13z m-1546 -33 c-3 -10 -5 -4 -5 12 0 17 2 24 5 18 2 -7 2 -21 0 -30z m980 5
c-3 -7 -5 -2 -5 12 0 14 2 19 5 13 2 -7 2 -19 0 -25z m183 17 c0 -8 5 -15 10
-15 6 0 10 7 10 17 0 9 3 14 6 10 8 -7 -5 -47 -15 -47 -4 0 -13 11 -19 25 -7
15 -8 25 -2 25 6 0 10 -7 10 -15z m460 -27 c0 -4 -4 -8 -10 -8 -5 0 -10 4 -10
9 0 5 -3 18 -6 28 -5 16 -4 16 10 -1 9 -11 16 -23 16 -28z m21 33 c6 10 9 6 9
-13 0 -16 -4 -28 -9 -28 -10 0 -21 25 -20 43 0 7 3 7 6 -2 5 -11 7 -11 14 0z
m1089 -22 c0 -10 -3 -19 -7 -19 -5 0 -8 11 -8 24 0 13 3 22 8 19 4 -2 7 -13 7
-24z m-3169 -6 c-12 -20 -14 -14 -5 12 4 9 9 14 11 11 3 -2 0 -13 -6 -23z
m547 2 c-3 -3 -9 2 -12 12 -6 14 -5 15 5 6 7 -7 10 -15 7 -18z m982 0 c14 -19
14 -19 -2 -6 -10 7 -18 18 -18 24 0 6 1 8 3 6 1 -2 9 -13 17 -24z m894 9 c5
-14 4 -15 -9 -4 -17 14 -19 20 -6 20 5 0 12 -7 15 -16z m283 -16 c-3 -8 -6 -5
-6 6 -1 11 2 17 5 13 3 -3 4 -12 1 -19z m193 1 c0 -6 -4 -7 -10 -4 -5 3 -10
11 -10 16 0 6 5 7 10 4 6 -3 10 -11 10 -16z m-2640 1 c0 -5 -5 -10 -11 -10 -5
0 -7 5 -4 10 3 6 8 10 11 10 2 0 4 -4 4 -10z"/>
<path d="M677 3774 c-9 -9 4 -35 14 -28 5 3 9 12 9 20 0 14 -12 19 -23 8z"/>
<path d="M500 3641 c0 -17 5 -31 10 -31 6 0 10 11 10 24 0 14 -4 28 -10 31 -6
4 -10 -7 -10 -24z"/>
<path d="M7645 2840 c-3 -5 1 -10 9 -10 9 0 16 5 16 10 0 6 -4 10 -9 10 -6 0
-13 -4 -16 -10z"/>
<path d="M7645 2810 c3 -5 10 -10 16 -10 5 0 9 5 9 10 0 6 -7 10 -16 10 -8 0
-12 -4 -9 -10z"/>
<path d="M225 2420 c-7 -12 2 -30 16 -30 5 0 9 9 9 20 0 21 -15 27 -25 10z"/>
<path d="M7642 2015 c2 -14 8 -26 13 -26 6 0 11 12 13 26 2 18 -1 25 -13 25
-12 0 -15 -7 -13 -25z"/>
<path d="M47 1883 c-13 -12 -7 -33 8 -33 8 0 15 9 15 20 0 20 -11 26 -23 13z"/>
<path d="M404 1485 c-8 -19 2 -45 16 -45 5 0 10 14 10 30 0 31 -16 41 -26 15z"/>
<path d="M7554 1485 c-8 -19 2 -45 16 -45 5 0 10 14 10 30 0 31 -16 41 -26 15z"/>
<path d="M7017 1224 c-4 -4 -7 -18 -7 -31 0 -28 23 -27 28 1 4 20 -11 40 -21
30z"/>
<path d="M7734 945 c-8 -19 2 -45 16 -45 5 0 10 14 10 30 0 31 -16 41 -26 15z"/>
<path d="M7920 800 c0 -5 5 -10 11 -10 5 0 7 5 4 10 -3 6 -8 10 -11 10 -2 0
-4 -4 -4 -10z"/>
<path d="M590 249 c0 -17 4 -28 10 -24 6 3 10 17 10 31 0 13 -4 24 -10 24 -5
0 -10 -14 -10 -31z"/>
</g>
</svg>
